HIERARCHY
ROOT root
{
	OFFSET	0	13.1	24.9
	CHANNELS 6  Xposition Yposition Zposition Xrotation Yrotation Zrotation
	JOINT spine_1
	{
		OFFSET	0	9.99999	0
		CHANNELS 3  Xrotation Yrotation Zrotation
		JOINT spine_2
		{
			OFFSET	0	112	-10
			CHANNELS 3  Xrotation Yrotation Zrotation
			JOINT spine_3
			{
				OFFSET	0	206.5	19.3
				CHANNELS 3  Xrotation Yrotation Zrotation
				JOINT spine_4
				{
					OFFSET	0	110.4	14.6
					CHANNELS 3  Xrotation Yrotation Zrotation
					JOINT neck_1
					{
						OFFSET	0	71.8	-50.3
						CHANNELS 3  Xrotation Yrotation Zrotation
						JOINT neck_2
						{
							OFFSET	0	86.2	-25.8
							CHANNELS 3  Xrotation Yrotation Zrotation
							JOINT head_ee
							{
								OFFSET	0	179.8	-8.7
								CHANNELS 3  Xrotation Yrotation Zrotation
								End Site
								{
									OFFSET	1	0	0
								}
							}
						}
					}
					JOINT left_clavicle
					{
						OFFSET	-43.2	22.4	-70.8
						CHANNELS 3  Xrotation Yrotation Zrotation
						JOINT left_shoulder
						{
							OFFSET	-93.9	-5.79999	48.7
							CHANNELS 3  Xrotation Yrotation Zrotation
							JOINT left_elbow
							{
								OFFSET	-291.4	-30.8	15.2
								CHANNELS 3  Xrotation Yrotation Zrotation
								JOINT left_lowarm_twist
								{
									OFFSET	-110.7	-3.89999	13.6
									CHANNELS 3  Xrotation Yrotation Zrotation
									JOINT left_hand
									{
										OFFSET	-110.7	-3.89999	13.6
										CHANNELS 3  Xrotation Yrotation Zrotation
										JOINT left_ee
										{
											OFFSET	-80.8	-5.10001	12.1
											CHANNELS 3  Xrotation Yrotation Zrotation
											End Site
											{
												OFFSET	1	0	0
											}
										}
									}
								}
							}
						}
					}
					JOINT right_clavicle
					{
						OFFSET	43.2	22.4	-70.8
						CHANNELS 3  Xrotation Yrotation Zrotation
						JOINT right_shoulder
						{
							OFFSET	93.9	-5.79999	48.7
							CHANNELS 3  Xrotation Yrotation Zrotation
							JOINT right_elbow
							{
								OFFSET	291.4	-30.8	15.2
								CHANNELS 3  Xrotation Yrotation Zrotation
								JOINT right_lowarm_twist
								{
									OFFSET	110.7	-3.89999	13.6
									CHANNELS 3  Xrotation Yrotation Zrotation
									JOINT right_hand
									{
										OFFSET	110.7	-3.89999	13.6
										CHANNELS 3  Xrotation Yrotation Zrotation
										JOINT right_ee
										{
											OFFSET	80.8	-5.10001	12.1
											CHANNELS 3  Xrotation Yrotation Zrotation
											End Site
											{
												OFFSET	1	0	0
											}
										}
									}
								}
							}
						}
					}
				}
			}
		}
	}
	JOINT left_hip
	{
		OFFSET	-82.8	-127.5	0.300001
		CHANNELS 3  Xrotation Yrotation Zrotation
		JOINT left_knee
		{
			OFFSET	-28.2	-396.7	2.2
			CHANNELS 3  Xrotation Yrotation Zrotation
			JOINT left_ankle
			{
				OFFSET	-11.7	-411.3	35.4
				CHANNELS 3  Xrotation Yrotation Zrotation
				JOINT left_toes
				{
					OFFSET	0	-60	-88.6
					CHANNELS 3  Xrotation Yrotation Zrotation
					JOINT left_foot_ee
					{
						OFFSET	-22.5	-16.5	-42.2
						CHANNELS 3  Xrotation Yrotation Zrotation
						End Site
						{
							OFFSET	1	0	0
						}
					}
				}
			}
		}
	}
	JOINT right_hip
	{
		OFFSET	82.8	-127.5	0.300001
		CHANNELS 3  Xrotation Yrotation Zrotation
		JOINT right_knee
		{
			OFFSET	28.2	-396.7	2.2
			CHANNELS 3  Xrotation Yrotation Zrotation
			JOINT right_ankle
			{
				OFFSET	11.7	-411.3	35.4
				CHANNELS 3  Xrotation Yrotation Zrotation
				JOINT right_toes
				{
					OFFSET	0	-60	-88.6
					CHANNELS 3  Xrotation Yrotation Zrotation
					JOINT right_foot_ee
					{
						OFFSET	22.5	-16.5	-42.2
						CHANNELS 3  Xrotation Yrotation Zrotation
						End Site
						{
							OFFSET	1	0	0
						}
					}
				}
			}
		}
	}
}
MOTION
Frames: 8
Frame Time: 0.02
3574.42 741.953 -1474.73 1.65569318324 68.7750353092 -3.49365272236 -1.51546 0.805556 2.9793 -1.51073 0.614432 3.02447 -1.47304 -0.114089 3.08408 -1.48612 0.374183 3.06344 -12.0886 11.6278 1.51227 -12.3367 21.1 4.81293 -0.0 0.0 -0.0 4.78638 25.1911 9.25613 -3.70971 -6.67762 59.848 3.02515 -56.2732 1.61803 -85.1444 -8.46998 5.18101 -1.49878 -1.10543 -10.5626 -0.0 0.0 -0.0 12.4393 20.0192 -24.9439 -16.399 24.6572 -62.2401 0.470185 13.1115 -0.0540348 40.2849 0.364167 5.02872 -1.58937 -26.785 -1.73732 0.0 0.0 0.0 -6.20179 17.0408 3.07401 4.14079 -0.19253 -0.606017 17.884 10.1936 -2.46817 -39.9959 0.0 0.0 -0.0 0.0 -0.0 15.3477 38.7895 0.455957 -24.1978 -0.222237 -3.67919 17.2881 5.04559 2.44591 -20.5377 0.0 0.0 0.0 0.0 0.0 
3574.42 741.953 -1474.73 1.62714720409 68.3842376186 -3.46298883423 -1.51546 0.805556 2.9793 -1.51073 0.614432 3.02447 -1.47304 -0.114089 3.08408 -1.48612 0.374183 3.06344 -12.0886 11.6278 1.51227 -12.3367 21.1 4.81293 -0.0 0.0 -0.0 4.78638 25.1911 9.25613 -3.70971 -6.67762 59.848 3.02515 -56.2732 1.61803 -85.1444 -8.46998 5.18101 -1.49878 -1.10543 -10.5626 -0.0 0.0 -0.0 12.4393 20.0192 -24.9439 -16.399 24.6572 -62.2401 0.470185 13.1115 -0.0540348 40.2849 0.364167 5.02872 -1.58937 -26.785 -1.73732 0.0 0.0 0.0 -6.20179 17.0408 3.07401 4.14079 -0.19253 -0.606017 17.884 10.1936 -2.46817 -39.9959 0.0 0.0 -0.0 0.0 -0.0 15.3477 38.7895 0.455957 -24.1978 -0.222237 -3.67919 17.2881 5.04559 2.44591 -20.5377 0.0 0.0 0.0 0.0 0.0 
3574.42 741.953 -1474.73 1.6015740248 68.0213619341 -3.43544662467 -1.51546 0.805556 2.9793 -1.51073 0.614432 3.02447 -1.47304 -0.114089 3.08408 -1.48612 0.374183 3.06344 -12.0886 11.6278 1.51227 -12.3367 21.1 4.81293 -0.0 0.0 -0.0 4.78638 25.1911 9.25613 -3.70971 -6.67762 59.848 3.02515 -56.2732 1.61803 -85.1444 -8.46998 5.18101 -1.49878 -1.10543 -10.5626 -0.0 0.0 -0.0 12.4393 20.0192 -24.9439 -16.399 24.6572 -62.2401 0.470185 13.1115 -0.0540348 40.2849 0.364167 5.02872 -1.58937 -26.785 -1.73732 0.0 0.0 0.0 -6.20179 17.0408 3.07401 4.14079 -0.19253 -0.606017 17.884 10.1936 -2.46817 -39.9959 0.0 0.0 -0.0 0.0 -0.0 15.3477 38.7895 0.455957 -24.1978 -0.222237 -3.67919 17.2881 5.04559 2.44591 -20.5377 0.0 0.0 0.0 0.0 0.0 
3574.42 741.953 -1474.73 1.54561938235 67.1819218658 -3.37492775652 -1.51546 0.805556 2.9793 -1.51073 0.614432 3.02447 -1.47304 -0.114089 3.08408 -1.48612 0.374183 3.06344 -12.0886 11.6278 1.51227 -12.3367 21.1 4.81293 -0.0 0.0 -0.0 4.78638 25.1911 9.25613 -3.70971 -6.67762 59.848 3.02515 -56.2732 1.61803 -85.1444 -8.46998 5.18101 -1.49878 -1.10543 -10.5626 -0.0 0.0 -0.0 12.4393 20.0192 -24.9439 -16.399 24.6572 -62.2401 0.470185 13.1115 -0.0540348 40.2849 0.364167 5.02872 -1.58937 -26.785 -1.73732 0.0 0.0 0.0 -6.20179 17.0408 3.07401 4.14079 -0.19253 -0.606017 17.884 10.1936 -2.46817 -39.9959 0.0 0.0 -0.0 0.0 -0.0 15.3477 38.7895 0.455957 -24.1978 -0.222237 -3.67919 17.2881 5.04559 2.44591 -20.5377 0.0 0.0 0.0 0.0 0.0 
3574.42 741.953 -1474.73 1.51111286262 66.6304595727 -3.33741555434 -1.51546 0.805556 2.9793 -1.51073 0.614432 3.02447 -1.47304 -0.114089 3.08408 -1.48612 0.374183 3.06344 -12.0886 11.6278 1.51227 -12.3367 21.1 4.81293 -0.0 0.0 -0.0 4.78638 25.1911 9.25613 -3.70971 -6.67762 59.848 3.02515 -56.2732 1.61803 -85.1444 -8.46998 5.18101 -1.49878 -1.10543 -10.5626 -0.0 0.0 -0.0 12.4393 20.0192 -24.9439 -16.399 24.6572 -62.2401 0.470185 13.1115 -0.0540348 40.2849 0.364167 5.02872 -1.58937 -26.785 -1.73732 0.0 0.0 0.0 -6.20179 17.0408 3.07401 4.14079 -0.19253 -0.606017 17.884 10.1936 -2.46817 -39.9959 0.0 0.0 -0.0 0.0 -0.0 15.3477 38.7895 0.455957 -24.1978 -0.222237 -3.67919 17.2881 5.04559 2.44591 -20.5377 0.0 0.0 0.0 0.0 0.0 
3574.42 741.953 -1474.73 1.4541250232 65.656783247 -3.27510619466 -1.51546 0.805556 2.9793 -1.51073 0.614432 3.02447 -1.47304 -0.114089 3.08408 -1.48612 0.374183 3.06344 -12.0886 11.6278 1.51227 -12.3367 21.1 4.81293 -0.0 0.0 -0.0 4.78638 25.1911 9.25613 -3.70971 -6.67762 59.848 3.02515 -56.2732 1.61803 -85.1444 -8.46998 5.18101 -1.49878 -1.10543 -10.5626 -0.0 0.0 -0.0 12.4393 20.0192 -24.9439 -16.399 24.6572 -62.2401 0.470185 13.1115 -0.0540348 40.2849 0.364167 5.02872 -1.58937 -26.785 -1.73732 0.0 0.0 0.0 -6.20179 17.0408 3.07401 4.14079 -0.19253 -0.606017 17.884 10.1936 -2.46817 -39.9959 0.0 0.0 -0.0 0.0 -0.0 15.3477 38.7895 0.455957 -24.1978 -0.222237 -3.67919 17.2881 5.04559 2.44591 -20.5377 0.0 0.0 0.0 0.0 0.0 
3571.64510791 740.031 -1482.88107121 1.78918510258 68.0518114957 -2.99586345872 -1.58638 0.706334 2.87093 -1.58195 0.522297 2.91001 -1.55056 -0.180824 2.95094 -1.5626 0.287285 2.94249 -13.2972 10.6127 -2.14165 -13.6134 21.5322 1.26135 -0.0 0.0 -0.0 4.71669 23.9841 9.20089 -4.58902 -7.64877 59.6877 3.0527 -56.5123 1.64097 -83.3499 -8.24505 5.22212 -0.694159 -0.927315 -5.04374 -0.0 0.0 -0.0 12.3691 23.1421 -24.5237 -13.9988 26.0793 -63.1622 0.420429 11.7649 -0.0433174 38.5262 0.274836 4.82231 -2.39439 -27.3568 2.40547 0.0 0.0 0.0 -5.54019 12.8308 1.40473 2.47584 -0.109844 -0.363996 16.7815 10.6292 -2.32774 -40.1692 0.0 0.0 -0.0 0.0 -0.0 15.4498 33.7417 -0.158561 -24.1987 -0.222216 -3.67933 18.1537 6.14439 2.56924 -11.1152 0.0 0.0 0.0 0.0 0.0 
3565.09851934 739.553 -1489.7684761 2.82932175436 68.1679680812 -4.02439093098 -1.63159 0.743816 2.9257 -1.627 0.556223 2.96705 -1.59304 -0.163554 3.01426 -1.60558 0.314326 3.0023 -13.5605 10.9171 -4.56376 -13.9168 23.6016 -0.882729 -0.0 0.0 -0.0 4.56008 23.7366 8.99077 -5.18203 -8.16888 59.6304 2.97712 -55.8488 1.57818 -82.6671 -8.15911 5.23589 -0.357832 -0.107638 -2.43621 -0.0 0.0 -0.0 12.4269 24.319 -24.5409 -13.099 26.2593 -63.0723 0.435029 12.1615 -0.0463437 37.5242 0.226793 4.70353 -2.29756 -24.8011 3.16674 0.0 0.0 0.0 -6.04968 12.981 1.21382 1.66958 -0.0723444 -0.245975 19.9785 13.1853 -2.74332 -40.0525 0.0 0.0 -0.0 0.0 -0.0 14.3185 31.3904 0.00574516 -24.5633 -0.213632 -3.73461 18.7364 6.10074 2.64386 -7.65678 0.0 0.0 0.0 0.0 0.0 
